# xmcd
#
# Track frame offsets:
#	150
#	16557
#	33052
#	54445
#	73503
#	91177
#	113058
#	129496
#	150037
#	169222
#	185159
#	208425
#
# Disc length: 2898 seconds
#
# Revision: 2
# Processed by: cddbd v1.5.2PL0 Copyright (c) Steve Scherf et al.
# Submitted via: EasyCDDAExtractor 6.2.0.3
#
DISCID=910b500c
DTITLE=משינה - רומנטיקה עתידנית
DYEAR=2005
DGENRE=
TTITLE0=התשובה
TTITLE1=רומנטיקה עתידנית
TTITLE2=נשק חם
TTITLE3=אני עף
TTITLE4=איזה יום יפה
TTITLE5=בסיפור שלא נגמר
TTITLE6=הייתי אתמול
TTITLE7=חלומות נעימים
TTITLE8=בלש דטקטיב
TTITLE9=בן-גוריון
TTITLE10=ילדתי
TTITLE11=קויפק מויאק קפוט
EXTD=
EXTT0=
EXTT1=
EXTT2=
EXTT3=
EXTT4=
EXTT5=
EXTT6=
EXTT7=
EXTT8=
EXTT9=
EXTT10=
EXTT11=
PLAYORDER=
